{"title":"Crossing.Over.2009.DVDRIP.XviD-ZEKTORM","uid":4911035,"size":745740716,"categoryP":"video","categoryS":"movies","magnet":"?xt=urn:btih:46fd822d57fcc9f0563003a2cfefe123599fe6e7&amp;dn=Crossing.Over.2009.DVDRIP.XviD-ZEKTORM&amp;tr=udp%3A%2F%2Ftracker.openbittorrent.com%3A80&amp;tr=udp%3A%2F%2Fopen.demonii.com%3A1337&amp;tr=udp%3A%2F%2Ftracker.coppersurfer.tk%3A6969&amp;tr=udp%3A%2F%2Fexodus.desync.com%3A6969","seeders":4,"leechers":1,"uploader":"blowley","files":5,"time":1243124179,"description":"Title                            : Crossing Over\nYear                             : 2009\nGenre                            : Drama\niMDB URL                         : http://www.imdb.com/title/tt0924129/\n\nComplete name                    : CO-ZEKTORM.avi\nFormat                           : AVI\nFile size                        : 701 MiB\nDuration                         : 1h 53mn\nOverall bit rate                 : 866 Kbps\nSubtitles                        : English, Spanish (Format: VobSub)\nSource                           : DVD NTSC\n\nVideo\nFormat                           : MPEG-4 Visual\nFormat profile                   : Streaming Video@L1\nCodec ID                         : DX50\nCodec ID/Hint                    : DivX 5\nDuration                         : 1h 53mn\nBit rate                         : 731 Kbps\nWidth                            : 720 pixels\nHeight                           : 304 pixels\nDisplay aspect ratio             : 2.35\nFrame rate                       : 23.976 fps\nResolution                       : 24 bits\nColorimetry                      : 4:2:0\nScan type                        : Progressive\nBits/(Pixel*Frame)               : 0.139\nStream size                      : 592 MiB (84%)\nWriting library                  : XviD\n\nAudio\nFormat                           : MPEG Audio\nFormat version                   : Version 1\nFormat profile                   : Layer 3\nCodec ID                         : 55\nCodec ID/Hint                    : MP3\nDuration                         : 1h 53mn\nBit rate mode                    : Constant\nBit rate                         : 128 Kbps\nMinimum bit rate                 : 128 Kbps\nChannel(s)                       : 2 channels\nSampling rate                    : 48.0 KHz\nResolution                       : 16 bits\nVideo delay                      : 48ms\nStream size                      : 104 MiB (15%)\nWriting library                  : LAME3.98r\nEncoding settings                : CBR\n","torrent":{"xt":"urn:btih:46fd822d57fcc9f0563003a2cfefe123599fe6e7","amp;dn":"Crossing.Over.2009.DVDRIP.XviD-ZEKTORM","amp;tr":["udp%3A%2F%2Ftracker.openbittorrent.com%3A80","udp%3A%2F%2Fopen.demonii.com%3A1337","udp%3A%2F%2Ftracker.coppersurfer.tk%3A6969","udp%3A%2F%2Fexodus.desync.com%3A6969"],"infoHash":"46fd822d57fcc9f0563003a2cfefe123599fe6e7","infoHashBuffer":{"type":"Buffer","data":[70,253,130,45,87,252,201,240,86,48,3,162,207,239,225,35,89,159,230,231]},"announce":[],"urlList":[]}}